<?xml version="1.0" encoding="UTF-8"?><svg id="Layer_1" xmlns="http://www.w3.org/2000/svg" viewBox="0 0 203.97 50.91"><defs><style>.cls-1{fill:#231f20;}</style></defs><path class="cls-1" d="M30.96,18.29c-5.69,9.07-12.96,21.17-17.64,28.59h5.62c7.06,0,8.42-2.16,10.51-9.29h2.59l-.72,12.46H.79l-.79-1.37c6.05-9.22,12.96-20.74,17.64-28.59h-5.47c-6.26,0-6.77,2.74-8.21,8.28H1.22v-11.52h29.09l.65,1.44Z"/><path class="cls-1" d="M38.39,8.28c0-2.74-.58-3.38-1.51-3.6l-2.38-.43V1.8l14.19-1.8.43.36v43.85c0,2.74.58,3.02,4.32,3.24v2.59h-19.37v-2.59c3.74-.22,4.32-.5,4.32-3.24V8.28ZM58.55,18.65c1.22-1.51,1.73-1.8,3.17-1.8h10.37v2.23c-8.06,1.58-10.51,2.59-12.1,4.46-.65.72-2.09,2.38-2.66,3.1-.07.14-.14.29,0,.5,3.24,5.98,6.91,11.45,11.38,16.92,1.94,2.38,3.31,3.24,4.61,3.74v2.16l-6.41.07c-5.33,0-7.85-1.01-10.15-4.25-3.1-4.18-5.04-8.5-7.2-12.89v-.58c1.66-2.3,6.55-10.58,9-13.68Z"/><path class="cls-1" d="M88.55,50.04c-3.31-9.22-6.98-18.87-10.3-27.58-.79-2.09-1.73-2.81-4.25-2.95v-2.66h18.29v2.66l-2.45.29c-1.22.22-1.3.72-.94,2.02,1.58,4.97,5.18,15.05,6.77,19.66h.29c2.3-6.91,4.46-13.25,6.05-19.37.36-1.3.14-2.02-1.08-2.16l-3.38-.43v-2.66h14.19v2.66c-2.74.22-3.89.43-4.97,2.88-3.82,8.64-7.2,18.94-10.44,27.65h-7.78Z"/><path class="cls-1" d="M146.69,33.48c0,10.8-5.18,17.43-17.64,17.43s-17.71-6.62-17.71-17.43,5.18-17.5,17.79-17.5,17.57,6.7,17.57,17.5ZM129.04,47.74c4.54,0,6.34-5.26,6.34-14.26s-1.8-14.26-6.34-14.26-6.41,5.18-6.41,14.33,1.8,14.19,6.41,14.19Z"/><path class="cls-1" d="M162.98,20.31v19.23c0,4.46,1.8,6.19,4.18,6.19.65,0,2.02-.29,2.88-.65l.72,2.16c-3.96,2.52-7.34,3.67-10.01,3.67-3.96,0-8.5-2.81-8.5-8.86v-21.75h-3.82v-3.46h4.18l6.19-8.5h4.18v8.5h6.84v3.46h-6.84Z"/><path class="cls-1" d="M183.16,33.12c0,7.06,2.38,12.38,8.86,12.38,3.96,0,6.91-2.02,8.93-5.9l2.52,1.44c-2.38,5.98-6.84,9.87-14.91,9.87-12.82.07-16.71-8.42-16.71-17.5s4.46-17.43,16.85-17.43c13.18,0,15.27,8.42,15.27,14.19,0,2.16-1.15,2.95-3.74,2.95h-17.07ZM191.08,29.74c1.51,0,2.09-.36,2.09-2.23,0-3.24-.86-8.28-4.61-8.28-4.03,0-5.47,5.33-5.47,10.51h7.99Z"/></svg>